<?xml version="1.0" standalone="no"?>
<!DOCTYPE svg PUBLIC "-//W3C//DTD SVG 20010904//EN"
 "http://www.w3.org/TR/2001/REC-SVG-20010904/DTD/svg10.dtd">
<svg version="1.0" xmlns="http://www.w3.org/2000/svg"
 width="1024.000000pt" height="1024.000000pt" viewBox="0 0 1024.000000 1024.000000"
 preserveAspectRatio="xMidYMid meet">
<metadata>
Created by potrace 1.11, written by Peter Selinger 2001-2013
</metadata>
<g transform="translate(0.000000,1024.000000) scale(0.100000,-0.100000)"
fill="#000000" stroke="none">
<path d="M5415 8690 c-166 -18 -229 -27 -330 -46 -100 -18 -352 -88 -410 -113
-11 -5 -51 -21 -90 -36 -122 -47 -433 -195 -535 -255 -30 -18 -69 -40 -86 -49
-77 -42 -265 -163 -386 -250 -259 -185 -421 -322 -653 -555 -153 -153 -193
-196 -300 -320 l-60 -70 85 66 c427 327 899 540 1475 667 50 11 106 22 125 25
19 3 46 8 60 10 27 5 149 22 219 30 178 22 661 29 836 12 50 -4 104 -10 120
-11 17 -2 48 -6 70 -9 22 -3 58 -8 80 -11 78 -11 191 -31 255 -45 25 -6 55
-12 67 -15 47 -8 252 -66 353 -98 295 -96 612 -248 855 -410 63 -42 196 -138
205 -147 3 -3 30 -25 60 -50 245 -199 465 -464 614 -741 93 -172 180 -425 203
-589 3 -19 8 -53 12 -76 14 -77 18 -266 8 -414 -4 -66 -3 -86 4 -65 13 41 57
204 63 235 18 91 35 181 40 215 3 22 8 56 11 75 22 141 29 262 29 465 0 164
-8 352 -18 415 -2 14 -9 63 -16 110 -15 110 -54 304 -80 402 -86 327 -264 617
-540 883 -377 363 -984 650 -1545 730 -22 3 -51 8 -65 11 -14 2 -47 7 -75 10
-27 2 -61 7 -75 10 -41 9 -509 12 -585 4z"/>
<path d="M2850 7804 c-691 -372 -1264 -830 -1661 -1329 -306 -385 -501 -765
-618 -1205 -29 -108 -53 -224 -66 -315 -3 -23 -8 -52 -10 -65 -27 -136 -24
-543 5 -710 5 -30 12 -71 15 -90 39 -240 162 -549 303 -765 158 -241 372 -458
599 -608 287 -190 667 -325 1103 -392 25 -4 52 -9 60 -10 8 -2 42 -6 75 -9 33
-4 74 -9 90 -12 32 -5 79 -9 245 -20 205 -15 766 -9 970 11 19 1 71 6 115 10
44 3 87 8 95 10 8 2 44 6 80 10 36 4 76 8 90 10 14 2 67 9 118 15 88 12 109
21 60 26 -13 1 -54 5 -91 9 -37 3 -76 8 -85 9 -17 3 -82 13 -152 22 -59 8
-359 68 -420 84 -19 5 -46 11 -60 14 -78 14 -489 138 -565 171 -16 7 -73 29
-125 50 -143 57 -391 179 -520 258 -102 61 -236 151 -250 166 -3 4 -30 25 -60
47 -271 202 -539 539 -655 824 -14 36 -30 74 -35 85 -47 104 -103 349 -125
545 -13 123 -14 151 -14 290 0 164 2 202 24 380 6 48 26 165 36 210 6 25 12
52 14 60 86 408 354 959 666 1373 60 79 177 227 189 237 3 3 34 39 69 80 104
121 286 303 431 433 74 66 139 124 145 128 17 16 1 9 -85 -37z"/>
<path d="M3790 6992 c-79 -6 -256 -45 -338 -73 -555 -196 -988 -768 -1106
-1459 -99 -583 71 -1232 441 -1690 209 -257 496 -443 768 -496 11 -2 47 -9 80
-16 93 -18 3078 -19 3159 -1 192 43 325 209 324 404 -1 193 -137 358 -328 398
-40 8 -445 13 -1455 15 -770 1 -1417 6 -1437 10 -79 14 -212 58 -277 90 -152
77 -265 189 -350 347 -94 175 -135 350 -135 584 -1 189 15 298 66 455 115 353
395 571 778 604 30 3 669 5 1420 6 1163 0 1372 3 1413 15 122 37 215 117 271
235 26 54 31 79 33 147 5 186 -96 334 -276 405 l-56 22 -1480 0 c-814 1 -1496
0 -1515 -2z"/>
<path d="M8610 6997 c0 -2 9 -43 19 -92 26 -118 29 -136 42 -225 5 -41 12 -86
14 -99 20 -120 28 -553 12 -721 -53 -580 -245 -1131 -571 -1640 -33 -52 -64
-99 -68 -105 -4 -5 -36 -48 -70 -95 -579 -798 -1487 -1433 -2546 -1779 -191
-63 -202 -66 -367 -110 -183 -49 -457 -105 -660 -135 -309 -46 -628 -69 -960
-70 -140 0 -413 10 -515 19 -25 2 -76 7 -115 10 -205 18 -589 79 -784 125 -46
11 -86 19 -87 17 -4 -3 267 -92 311 -102 11 -3 61 -16 110 -30 147 -41 468
-114 640 -145 138 -25 201 -35 345 -55 14 -2 43 -6 65 -9 22 -3 65 -8 95 -11
30 -3 71 -7 90 -10 36 -5 152 -15 230 -21 25 -1 95 -6 155 -11 220 -16 938 -8
1145 12 19 2 71 6 115 10 43 4 91 8 105 10 14 1 54 6 90 10 36 4 73 9 84 11
10 2 44 6 75 9 31 4 63 8 71 10 8 2 35 7 60 10 25 3 83 13 130 21 47 8 99 17
115 20 17 3 102 21 190 40 88 19 169 37 180 39 37 6 260 66 376 101 646 191
1237 470 1709 807 320 229 644 544 836 812 237 332 368 640 438 1030 26 140
26 512 1 635 -3 14 -12 59 -19 100 -86 440 -348 906 -728 1290 -168 171 -358
338 -358 317z"/>
<path d="M4185 5533 c-211 -18 -364 -152 -398 -350 -33 -192 87 -386 281 -454
56 -20 79 -21 1192 -21 860 -1 1146 2 1180 11 146 40 267 160 304 303 55 212
-73 424 -299 498 -32 11 -262 14 -1135 14 -602 1 -1108 0 -1125 -1z"/>
</g>
</svg>
