<svg id="Layer_1" xmlns="http://www.w3.org/2000/svg" viewBox="0 0 609.5 415"><style>.st0{fill:url(#SVGID_1_)}.st1{fill:url(#SVGID_2_)}.st2{fill:url(#SVGID_3_)}.st3{fill:url(#SVGID_4_)}.st4{fill:url(#SVGID_5_)}.st5{fill:#58595b}</style><radialGradient id="SVGID_1_" cx="359.93" cy="215.427" r="88.018" gradientUnits="userSpaceOnUse"><stop offset="0" stop-color="#26a9e0"/><stop offset="1" stop-color="#1b75bb"/></radialGradient><path class="st0" d="M398.6 138.7c1.8 7.2 2.7 14.7 2.7 22.3 0 61.8-61.8 111.9-137.9 111.9-14.2 0-27.9-1.7-40.7-5 20 7.1 43.1 11.2 67.7 11.2 76.2 0 137.9-38.8 137.9-86.7-.1-20.3-11.2-38.9-29.7-53.7z"/><radialGradient id="SVGID_2_" cx="336.834" cy="130.068" r="64.035" gradientUnits="userSpaceOnUse"><stop offset="0" stop-color="#f1a31e"/><stop offset="1" stop-color="#f05530"/></radialGradient><path class="st1" d="M304.2 117.2c47.3 0 85.7 29.1 85.7 65 0 2.7-.2 5.3-.7 7.9 3.5-10.7 7-29.1 1.5-51.7-9-36.3-60.8-54.3-97.9-38.9-25.6 10.6-42.7 27.2-52.7 39.6 15.7-13.4 38.6-21.9 64.1-21.9z"/><radialGradient id="SVGID_3_" cx="214.987" cy="201.179" r="64.584" gradientUnits="userSpaceOnUse"><stop offset="0" stop-color="#8bc53f"/><stop offset="1" stop-color="#53843f"/></radialGradient><path class="st2" d="M292.7 261.4s-57.5 10.7-85.7-11.5c-29-22.9-25.7-61.7-9.8-87.6 18.6-30.2 53.1-46 53.1-46s-49.8 38-40.8 89.3c9 51.4 83.2 55.8 83.2 55.8z"/><radialGradient id="SVGID_4_" cx="278.725" cy="186.219" r="105.511" gradientUnits="userSpaceOnUse"><stop offset="0" stop-color="#d0d2d3"/><stop offset=".108" stop-color="#b6b8b9"/><stop offset=".278" stop-color="#949697"/><stop offset=".452" stop-color="#7a7b7d"/><stop offset=".628" stop-color="#67686a"/><stop offset=".808" stop-color="#5c5d5f"/><stop offset="1" stop-color="#58595b"/></radialGradient><path class="st3" d="M339.1 177.6h-56.2c-5.9 0-10.9 5-10.9 10.9s5 10.9 10.9 10.9h56.2c5.9 0 10.9-5 10.9-10.9s-5-10.9-10.9-10.9z"/><radialGradient id="SVGID_5_" cx="278.725" cy="186.219" r="105.511" gradientUnits="userSpaceOnUse"><stop offset="0" stop-color="#d0d2d3"/><stop offset=".108" stop-color="#b6b8b9"/><stop offset=".278" stop-color="#949697"/><stop offset=".452" stop-color="#7a7b7d"/><stop offset=".628" stop-color="#67686a"/><stop offset=".808" stop-color="#5c5d5f"/><stop offset="1" stop-color="#58595b"/></radialGradient><path class="st4" d="M348.7 216.3h-68.3c-20.9 0-25.4-16.8-25.4-27.7 0-10.9 4.5-27.7 25.4-27.7h68.3c5.9 0 10.9-5 10.9-10.9s-5-10.9-10.9-10.9h-73.3c-26.1 0-41.8 26.6-41.8 49.5 0 22.5 14.8 49.5 39.5 49.5h75.6c5.9 0 10.9-5 10.9-10.9s-5-10.9-10.9-10.9z"/><path class="st5" d="M109.7 321v-23.8h24.4v3.5h-19.9v5.9h18.9v3.5h-18.9v7.3h19.9v3.5h-24.4zm57.6 0L142 302.5V321h-4v-23.8h3.9l23.7 17.7v-17.7h3.9V321h-2.2zm14.9 0c-5.6 0-8.5-1.7-8.5-5.1v-13.5c0-3.4 2.8-5.1 8.5-5.1h18.6v3.5h-18.6c-2.7 0-4 .5-4 1.6v13.5c0 1.1 1.3 1.6 4 1.6h10.5c2.7 0 4-.5 4-1.6V308h4.5v7.9c0 3.4-2.8 5.1-8.5 5.1h-10.5zm23.2 0v-23.8h4.5V321h-4.5zm38.4 0l-25.3-18.5V321h-3.9v-23.8h3.9l23.7 17.7v-17.7h3.9V321h-2.3zm6.5 0v-23.8h24.4v3.5h-19.9v5.9h18.9v3.5h-18.9v7.3h19.9v3.5h-24.4zm28.3 0v-23.8H303v3.5h-19.9v5.9H302v3.5h-18.9v7.3H303v3.5h-24.4zm50.8 0l-5.6-10.6h-12.5V321h-4.5v-23.8H327c1.4 0 2.5.1 3.4.4.9.3 1.7.7 2.3 1.2.6.5 1 1.1 1.3 1.8.3.7.4 1.5.4 2.3v1.7c0 1.5-.5 2.8-1.4 3.8-.9 1-2.4 1.6-4.5 1.8l5.6 10.7h-4.7zm.6-18.1c0-1.5-1-2.2-3-2.2h-15.7v6.1H327c2 0 3-.7 3-2.2v-1.7zm52.5 18.1l-12.3-19.1-12.4 19.1h-5l15.8-23.8h3.3l15.7 23.8h-5.1zm11.7-8.8v8.8h-4.5v-23.8h19.5c1.4 0 2.5.1 3.4.4.9.3 1.7.7 2.3 1.2.6.5 1 1.1 1.3 1.8.3.7.4 1.5.4 2.3v3.5c0 .9-.1 1.6-.4 2.3-.3.7-.7 1.3-1.3 1.8-.6.5-1.4.9-2.3 1.2-.9.3-2.1.4-3.4.4h-15zm18-9.3c0-1.5-1-2.2-3-2.2h-15v8h15c2 0 3-.7 3-2.2v-3.6zM443 321l-12.3-19.1-12.4 19.1h-5l15.8-23.8h3.3l15.7 23.8H443zm29.9 0l-5.6-10.6h-12.5V321h-4.5v-23.8h20.2c1.4 0 2.5.1 3.4.4.9.3 1.7.7 2.3 1.2.6.5 1 1.1 1.3 1.8.3.7.4 1.5.4 2.3v1.7c0 1.5-.5 2.8-1.4 3.8-.9 1-2.4 1.6-4.5 1.8l5.6 10.7h-4.7zm.6-18.1c0-1.5-1-2.2-3-2.2h-15.7v6.1h15.7c2 0 3-.7 3-2.2v-1.7zm19.1 18.1v-20.3h-12.5v-3.5h29.1v3.5h-12.1V321h-4.5z"/></svg>