<svg id="Layer_1" xmlns="http://www.w3.org/2000/svg" viewBox="0 0 57 57"><style>.st0{opacity:.5}.st1,.st2,.st3{fill:url(#SVGID_1_);stroke:#fff}.st2,.st3{fill:url(#SVGID_2_);stroke-miterlimit:10}.st3{fill:url(#SVGID_3_)}.st4{fill:url(#SVGID_4_)}.st5{fill:url(#SVGID_5_)}.st6{fill:url(#SVGID_6_)}.st7{fill:none}</style><g class="st0"><linearGradient id="SVGID_1_" gradientUnits="userSpaceOnUse" x1="-634.837" y1="-796.249" x2="-649.326" y2="-796.347" gradientTransform="matrix(-.9771 -.323 .2901 -.8773 -367.247 -874.266)"><stop offset=".231" stop-color="#979675"/><stop offset=".563" stop-color="#999877"/><stop offset=".683" stop-color="#9e9d7e"/><stop offset=".768" stop-color="#a8a789"/><stop offset=".837" stop-color="#b6b49a"/><stop offset=".896" stop-color="#c8c6b0"/><stop offset=".948" stop-color="#dedccb"/><stop offset=".994" stop-color="#f7f5eb"/><stop offset="1" stop-color="#fbf9ef"/></linearGradient><path class="st1" d="M30.2 51.8l-1.2-.4s.2-6.2-2.1-6.7c-1.5-1.7.2-73.2 5.6-.2 0 0-1.8.9-2.2 2.5-.4 1.5-.1 4.8-.1 4.8z"/><linearGradient id="SVGID_2_" gradientUnits="userSpaceOnUse" x1="-632.605" y1="-770.89" x2="-653.451" y2="-806.995" gradientTransform="matrix(-.9771 -.323 .2901 -.8773 -367.247 -874.266)"><stop offset="0" stop-color="#48a548"/><stop offset="1" stop-color="#3d9043"/></linearGradient><path class="st2" d="M30.9 45.8s10.7-7 8.2-21.6C36.6 13.5 30.9 10 30.3 8.7c-.7-.9-1.3-2.6-1.3-2.6l.5 29.6c-.1 0-1 9 1.4 10.1z"/><linearGradient id="SVGID_3_" gradientUnits="userSpaceOnUse" x1="-630.695" y1="-796.845" x2="-645.471" y2="-786.92" gradientTransform="matrix(-.9771 -.323 .2901 -.8773 -367.247 -874.266)"><stop offset="0" stop-color="#40a248"/><stop offset=".352" stop-color="#4aa74b"/><stop offset=".956" stop-color="#66b452"/><stop offset="1" stop-color="#68b553"/></linearGradient><path class="st3" d="M28.3 46.2s-10-6.8-9.4-18.9c.6-12.1 7.7-18 9-19.1.9-1 .9-1.3 1-2.3.6 1.3.5 20 .6 22.2.3 8.6-.5 16.5-1.2 18.1z"/></g><linearGradient id="SVGID_4_" gradientUnits="userSpaceOnUse" x1="-634.837" y1="-796.249" x2="-649.326" y2="-796.347" gradientTransform="matrix(-.9771 -.323 .2901 -.8773 -367.247 -874.266)"><stop offset=".231" stop-color="#979675"/><stop offset=".563" stop-color="#999877"/><stop offset=".683" stop-color="#9e9d7e"/><stop offset=".768" stop-color="#a8a789"/><stop offset=".837" stop-color="#b6b49a"/><stop offset=".896" stop-color="#c8c6b0"/><stop offset=".948" stop-color="#dedccb"/><stop offset=".994" stop-color="#f7f5eb"/><stop offset="1" stop-color="#fbf9ef"/></linearGradient><path class="st4" d="M30.2 51.8l-1.2-.4s.2-6.2-2.1-6.7c-1.5-1.7.2-73.2 5.6-.2 0 0-1.8.9-2.2 2.5-.4 1.5-.1 4.8-.1 4.8z"/><linearGradient id="SVGID_5_" gradientUnits="userSpaceOnUse" x1="-632.605" y1="-770.89" x2="-653.451" y2="-806.995" gradientTransform="matrix(-.9771 -.323 .2901 -.8773 -367.247 -874.266)"><stop offset="0" stop-color="#48a548"/><stop offset="1" stop-color="#3d9043"/></linearGradient><path class="st5" d="M30.9 45.8s10.7-7 8.2-21.6C36.6 13.5 30.9 10 30.3 8.7c-.7-.9-1.3-2.6-1.3-2.6l.5 29.6c-.1 0-1 9 1.4 10.1z"/><linearGradient id="SVGID_6_" gradientUnits="userSpaceOnUse" x1="-630.695" y1="-796.845" x2="-645.471" y2="-786.92" gradientTransform="matrix(-.9771 -.323 .2901 -.8773 -367.247 -874.266)"><stop offset="0" stop-color="#40a248"/><stop offset=".352" stop-color="#4aa74b"/><stop offset=".956" stop-color="#66b452"/><stop offset="1" stop-color="#68b553"/></linearGradient><path class="st6" d="M28.3 46.2s-10-6.8-9.4-18.9c.6-12.1 7.7-18 9-19.1.9-1 .9-1.3 1-2.3.6 1.3.5 20 .6 22.2.3 8.6-.5 16.5-1.2 18.1z"/><path class="st7" d="M0 0h57v57H0z"/></svg>