<svg xmlns="http://www.w3.org/2000/svg" viewBox="0 0 50 50"><path fill="#FFF" d="M29.2 3.1c-1.9-.3-3.8-.4-5.7-.1-1.1.2-2.1.7-3.1 1.2-3.1-1-6.5-1.6-9.8-1-2.4.5-4.5 1.8-5.7 3.9-1.6 2.5-1.9 5.5-1.6 8.4.4 3.2 1.2 6.4 2.1 9.5.8 2.7 1.7 5.4 3.2 7.8.8 1.3 2 2.7 3.6 3.1 1.3.3 2.6-.1 3.6-.9.5.5 1.1.9 1.7 1.1 1.9.7 4 .7 5.9-.1.1 2.6 0 5.3 1 7.8.4 1.2 1 2.3 2.1 3 1.1.8 2.6.9 3.9.7 1.2-.2 2.5-.6 3.5-1.2 1.1-.7 2-1.7 2.5-2.9 1.2-2.7 1.3-5.6 1.4-8.5 2.8.2 5.7-.5 7.8-2.4.8-.7 1.5-1.8 1.2-2.9-.3-1.1-1.4-1.7-2.4-1.6-1.1.1-2.1.4-3.2.4 2.4-4.2 4.3-8.7 5.1-13.4.3-2 .5-4.1 0-6-.3-1.1-1.1-2-1.9-2.8-1.8-1.8-4.2-3-6.7-3.5-2.9-.6-5.8-.3-8.5.4z"/><path fill="#FFF" d="M29.2 4.4c3-.9 6.2-1.2 9.2-.3 2.4.7 4.6 2.1 6.1 4.1.6.8.7 1.8.8 2.8.1 1.8-.3 3.6-.7 5.3-1.1 4.6-3.1 8.9-5.6 12.9 1.4.6 3 .3 4.4.1.6-.1 1.4-.3 1.8.3.4.6 0 1.3-.4 1.7-2.1 2.1-5.3 2.6-8.1 2.1-.3 2.5-.6 5.1-1 7.6-.2 1.4-.7 2.9-1.8 3.8-1 .9-2.4 1.3-3.7 1.6-1.3.2-2.8.1-3.9-.9s-1.7-2.5-1.9-3.9c-.3-2.5-.3-5.1-.3-7.6-1.2 1.1-2.8 1.6-4.4 1.5-1.1-.1-2.4-.3-3.2-1.1-.5-.4-.4-1.2.1-1.6.9-.7 2.1-.6 3.1-1 .8-.2 1.1-1 1.6-1.5-.9-.1-1.7-.3-2.5-.7-1.2 1.3-2.4 2.7-3.5 4-.7.8-1.6 1.5-2.7 1.3-1.2-.2-2.1-1.1-2.8-2.1-1.3-1.9-2.1-4.1-2.9-6.3-1.1-3.6-2-7.2-2.5-10.9-.3-2.8 0-5.8 1.6-8.2 1.3-1.9 3.5-2.9 5.7-3.2 3-.3 6 .3 8.7 1.3 2.3-1.6 5.3-1.8 8-1.2.3 0 .6.1.8.1zm2.2.7c.6.4 1.2.7 1.8 1.1 2.4 1.6 4.2 3.9 5.4 6.6.3.8.7 1.6.6 2.4 0 1.7-.6 3.4-.4 5.1.2 1.8.5 3.7.1 5.5-.1.6-.5 1.2-.7 1.8 0 .1.1.3.1.3l.6-.9c1.9-3.2 3.3-6.6 4.3-10.1.5-1.9.9-3.9.9-5.9 0-.8-.1-1.7-.6-2.4-1.1-1.4-2.6-2.6-4.3-3.2-2.6-.7-5.3-.8-7.8-.3zm-7 .3c-1.9.2-3.7 1.3-4.8 2.8-1.5 2.1-2.2 4.7-2.4 7.2 1.6-.7 3.3-1.4 5-1 1.1.3 2 1.3 2.2 2.4.5 2.3.8 4.6.3 6.9-.4 1.8-1.5 3.4-1.9 5.3.5 0 1 .1 1.4.3.9.5 1.4 1.5 1.3 2.5-.1 2.5-.1 5 .1 7.6.1 1.1.1 2.1.4 3.1.4 1.2 1.2 2.4 2.5 2.7 1.4.2 2.8-.2 4-.8 1.2-.6 1.7-2 2-3.3.4-2.7.7-5.4 1-8.1.1-1-.1-2 .5-2.9.3-.6.9-.8 1.4-1.1-.4-.6-.9-1.2-1.3-1.8-1.3-2.8-3.1-5.4-3.7-8.4-.2-1.3-.1-2.8 1-3.7 1.2-1 2.8-.9 4.3-.9-.9-2.5-2.5-4.7-4.5-6.3-2.4-2-5.7-2.9-8.8-2.5zm-13.3.2c-1.7.3-3.4 1.3-4.2 2.9-1.2 2.1-1.3 4.6-1.1 6.9.4 3.1 1.1 6.1 2 9 .8 2.5 1.6 5 3 7.2.5.8 1.1 1.6 2 1.9.8.2 1.4-.5 1.9-1 1-1.3 2.2-2.5 3.3-3.8-1.6-1.4-2.4-3.7-2.1-5.8.2-1.6.3-3.3.2-5-.2-2.3.2-4.7.9-7 .5-1.7 1.4-3.2 2.6-4.5-2.9-.8-5.7-1.3-8.5-.8zm23.3 10.3c-.8.6-.8 1.8-.6 2.7.6 2.9 2.2 5.3 3.5 7.9 1-1.9.4-4.1.2-6.2-.2-1.7.3-3.3.4-4.9-1.2 0-2.5-.2-3.5.5zM17.1 17c0 1.4.1 2.8 0 4.1-.1 1.2-.4 2.4-.1 3.7.4 2.2 2.3 4.1 4.5 4 .3-1.1.7-2.2 1.2-3.2 1.4-2.7 1.1-5.8.4-8.6-.2-.8-.9-1.4-1.7-1.4-1.5-.1-3 .5-4.3 1.4zm20.2 13.5c-.4.4-.4 1-.4 1.5.9.3 1.9.3 2.9.2 1.4-.2 2.9-.6 4-1.7-1.7.2-3.6.6-5.2-.2-.5-.2-1 0-1.3.2zm-16.4 2c-1 .6-2.1.5-3.1 1 2 1.1 4.9.7 6.2-1.2.7-.7 0-2.1-.9-2-.9.6-1.3 1.7-2.2 2.2z"/><path fill="#FFF" d="M34.8 16.3c.6-.4 1.4-.4 2-.2 0 .8-1 1.4-1.7 1-.3-.1-.7-.5-.3-.8zm-14.1.1c.6-.2 1.3-.1 1.8.3.3.3 0 .8-.3.9-.7.5-1.8 0-1.9-.8 0-.3.2-.4.4-.4z"/><path fill="#326690" d="M31.4 5.1c2.5-.6 5.2-.5 7.7.4 1.7.6 3.2 1.8 4.3 3.2.5.7.6 1.6.6 2.4 0 2-.4 3.9-.9 5.9-1 3.5-2.4 6.9-4.3 10.1l-.6.9c0-.1-.1-.3-.1-.3.2-.6.6-1.2.7-1.8.5-1.8.1-3.7-.1-5.5-.2-1.7.4-3.4.4-5.1.1-.8-.3-1.6-.6-2.4-1.2-2.6-3-4.9-5.4-6.6-.5-.5-1.1-.8-1.7-1.2z"/><path fill="#326690" d="M24.4 5.4c3.1-.4 6.4.5 8.9 2.4 2 1.6 3.7 3.8 4.5 6.3-1.4-.1-3.1-.1-4.3.9-1.1.9-1.2 2.4-1 3.7.5 3.1 2.4 5.7 3.7 8.4.3.7.8 1.2 1.3 1.8-.5.3-1.1.5-1.4 1.1-.5.9-.3 1.9-.5 2.9-.3 2.7-.6 5.4-1 8.1-.2 1.3-.8 2.7-2 3.3-1.2.6-2.7 1-4 .8-1.3-.2-2.1-1.5-2.5-2.7-.3-1-.3-2.1-.4-3.1-.1-2.5-.1-5-.1-7.6.1-1-.4-2-1.3-2.5-.4-.2-.9-.3-1.4-.3.4-1.8 1.5-3.4 1.9-5.3.5-2.3.2-4.7-.3-6.9-.2-1.1-1.1-2.1-2.2-2.4-1.7-.4-3.5.2-5 1 .2-2.6.9-5.2 2.4-7.2 1-1.5 2.8-2.5 4.7-2.7z"/><path fill="#326690" d="M11.1 5.6c2.8-.5 5.6 0 8.3.8-1.2 1.3-2.1 2.8-2.6 4.5-.7 2.2-1 4.6-.9 7 .1 1.7.1 3.3-.2 5-.3 2.1.6 4.3 2.1 5.8-1.1 1.3-2.2 2.5-3.3 3.8-.5.6-1.1 1.2-1.9 1-.9-.3-1.5-1.1-2-1.9-1.4-2.2-2.2-4.7-3-7.2-.9-2.9-1.6-5.9-2-9 0-2.4.1-4.9 1.3-6.9.8-1.6 2.5-2.6 4.2-2.9zm23.3 10.3c1-.7 2.4-.6 3.5-.5-.1 1.6-.5 3.2-.4 4.9.2 2.1.7 4.2-.2 6.2-1.3-2.6-3-5-3.5-7.9-.2-.9-.2-2.1.6-2.7zm.4.4c-.3.3 0 .7.3.8.7.4 1.7-.2 1.7-1-.6-.2-1.4-.2-2 .2z"/><path fill="#326690" d="M17.1 17c1.3-.8 2.8-1.5 4.3-1.4.8 0 1.5.6 1.7 1.4.7 2.8.9 5.9-.4 8.6-.5 1-.9 2.1-1.2 3.2-2.2 0-4.2-1.9-4.5-4-.3-1.2.1-2.4.1-3.7.2-1.4.1-2.7 0-4.1zm3.6-.6c-.2.1-.4.2-.4.4.1.8 1.2 1.3 1.9.8.3-.2.6-.6.3-.9-.5-.4-1.2-.5-1.8-.3zm16.6 14.1c.3-.2.8-.5 1.2-.2 1.6.9 3.5.4 5.2.2-1.1 1-2.5 1.5-4 1.7-1 .1-2 .2-2.9-.2.1-.5.1-1.1.5-1.5zm-16.4 2c.9-.5 1.3-1.6 2.2-2.2.9-.1 1.6 1.3.9 2-1.4 1.9-4.2 2.3-6.2 1.2.9-.4 2.1-.4 3.1-1z"/><path d="M29.2 3.1c2.7-.7 5.6-1 8.3-.5 2.5.4 4.9 1.7 6.7 3.5.8.8 1.6 1.7 1.9 2.8.5 2 .3 4 0 6-.9 4.7-2.7 9.3-5.1 13.4 1.1 0 2.1-.3 3.2-.4 1-.1 2.2.6 2.4 1.6.3 1.1-.4 2.2-1.2 2.9-2.1 1.9-5 2.5-7.8 2.4-.2 2.9-.2 5.8-1.4 8.5-.5 1.2-1.4 2.2-2.5 2.9-1.1.7-2.3 1-3.5 1.2-1.3.2-2.8.1-3.9-.7-1.1-.7-1.7-1.8-2.1-3-.9-2.5-.8-5.2-1-7.8-1.9.8-4 .8-5.9.1-.7-.2-1.3-.6-1.7-1.1-1 .8-2.3 1.2-3.6.9-1.6-.4-2.7-1.8-3.6-3.1-1.5-2.4-2.4-5.1-3.2-7.8-.9-3.1-1.7-6.3-2.1-9.5-.2-2.9 0-5.9 1.6-8.4 1.4-2 3.5-3.3 5.9-3.8 3.3-.7 6.6 0 9.8.9 1-.5 2-1 3.1-1.2 1.9-.3 3.8-.1 5.7.2zm0 1.3c-.2.1-.5-.1-.7-.1-2.7-.6-5.6-.3-8 1.2-2.8-1-5.8-1.6-8.7-1.3-2.2.3-4.5 1.3-5.7 3.2-1.6 2.4-1.8 5.4-1.6 8.2.5 3.6 1.4 7.3 2.5 10.8.8 2.2 1.6 4.4 2.9 6.3.7.9 1.6 1.9 2.8 2.1 1.1.1 2-.5 2.7-1.3 1.1-1.4 2.3-2.7 3.5-4 .8.4 1.6.6 2.5.7-.5.6-.9 1.3-1.6 1.5-1 .4-2.2.3-3.1 1-.5.4-.5 1.2-.1 1.6.8.8 2.1 1 3.2 1.1 1.6.1 3.2-.4 4.4-1.5 0 2.6 0 5.1.3 7.6.1 1.5.8 3 1.9 3.9 1 .9 2.6 1.1 3.9.9 1.3-.3 2.7-.7 3.7-1.6 1.1-1 1.6-2.4 1.8-3.8.4-2.5.7-5.1 1-7.6 2.8.5 6-.1 8.1-2.1.4-.4.9-1.2.4-1.7-.4-.5-1.2-.4-1.8-.3-1.4.3-3 .6-4.4-.1 2.5-4 4.5-8.3 5.6-12.9.4-1.7.7-3.5.7-5.3-.1-1-.2-2.1-.8-2.9-1.5-2-3.7-3.4-6.1-4.1-3.1-.7-6.3-.4-9.3.5z"/></svg>